<?xml version="1.0" standalone="no"?><!DOCTYPE svg PUBLIC "-//W3C//DTD SVG 1.1//EN" "http://www.w3.org/Graphics/SVG/1.1/DTD/svg11.dtd"><svg t="1487821614247" class="icon" style="" viewBox="0 0 1024 1024" version="1.1" xmlns="http://www.w3.org/2000/svg" p-id="3653" xmlns:xlink="http://www.w3.org/1999/xlink" width="40" height="40"><defs><style type="text/css"></style></defs><path d="M512 992C247.2 992 32 776.8 32 512S247.2 32 512 32s480 215.2 480 480-215.2 480-480 480z m0-874.4c-217.6 0-394.4 176.8-394.4 394.4 0 217.6 176.8 394.4 394.4 394.4s394.4-176.8 394.4-394.4c0-217.6-176.8-394.4-394.4-394.4z m0 746.4c-194.4 0-352-157.6-352-352s157.6-352 352-352 352 157.6 352 352-157.6 352-352 352z m-60.8-170.4c17.6 18.4 40 27.2 68 27.2 28.8 0 51.2-9.6 68.8-28 17.6-18.4 26.4-43.2 26.4-73.6 0-28.8-8.8-52.8-25.6-71.2-16.8-18.4-39.2-28-67.2-28-28.8 0-52.8 9.6-70.4 28.8-17.6 19.2-26.4 44-26.4 74.4 0 28.8 8.8 52 26.4 70.4z m-212.8-136h55.2v160h41.6v-160h55.2v-33.6h-152v33.6zM515.2 224L245.6 435.2l533.6 1.6-264-212.8z m212 300h-66.4v193.6h41.6v-67.2h21.6c21.6 0.8 40-5.6 54.4-16.8 14.4-12 21.6-28 21.6-48-0.8-41.6-24.8-61.6-72.8-61.6zM720 618.4h-17.6v-62.4H720c24 0 36 10.4 36 31.2 0 20-12 31.2-36 31.2z m-199.2-62.4c16 0 28 5.6 36.8 17.6 8.8 12 12.8 28 12.8 48 0 19.2-4.8 34.4-13.6 46.4-8.8 11.2-21.6 16.8-37.6 16.8s-28-5.6-37.6-17.6c-8.8-12-13.6-27.2-13.6-46.4s4.8-34.4 13.6-46.4c9.6-12 22.4-18.4 39.2-18.4z" p-id="3654" fill="#515151"></path></svg>